<?xml version="1.0" encoding="UTF-8" standalone="no"?>
<!DOCTYPE svg PUBLIC "-//W3C//DTD SVG 1.1//EN"
 "http://www.w3.org/Graphics/SVG/1.1/DTD/svg11.dtd">
<!-- Generated by graphviz version 2.40.1 (20161225.0304)
 -->
<!-- Title: dependencies Pages: 1 -->
<svg width="2522pt" height="284pt"
 viewBox="0.00 0.00 2522.00 284.00" xmlns="http://www.w3.org/2000/svg" xmlns:xlink="http://www.w3.org/1999/xlink">
<g id="graph0" class="graph" transform="scale(1 1) rotate(0) translate(4 280)">
<title>dependencies</title>
<polygon fill="#ffffff" stroke="transparent" points="-4,4 -4,-280 2518,-280 2518,4 -4,4"/>
<text text-anchor="start" x="1236.0091" y="-42.4" font-family="sans-serif" font-weight="bold" font-size="14.00" fill="#000000">Legend</text>
<polygon fill="#ffffb3" stroke="transparent" points="1023,-10 1023,-30 1043,-30 1043,-10 1023,-10"/>
<text text-anchor="start" x="1046.629" y="-15.4" font-family="sans-serif" font-size="14.00" fill="#000000"> &#160;Declarations</text>
<polygon fill="#8dd3c7" stroke="transparent" points="1136,-10 1136,-30 1156,-30 1156,-10 1136,-10"/>
<text text-anchor="start" x="1159.7251" y="-15.4" font-family="sans-serif" font-size="14.00" fill="#000000"> &#160;Module</text>
<polygon fill="#80b1d3" stroke="transparent" points="1222,-10 1222,-30 1242,-30 1242,-10 1222,-10"/>
<text text-anchor="start" x="1245.7812" y="-15.4" font-family="sans-serif" font-size="14.00" fill="#000000"> &#160;Bootstrap</text>
<polygon fill="#fdb462" stroke="transparent" points="1319,-10 1319,-30 1339,-30 1339,-10 1319,-10"/>
<text text-anchor="start" x="1342.6732" y="-15.4" font-family="sans-serif" font-size="14.00" fill="#000000"> &#160;Providers</text>
<polygon fill="#fb8072" stroke="transparent" points="1415,-10 1415,-30 1435,-30 1435,-10 1415,-10"/>
<text text-anchor="start" x="1438.7258" y="-15.4" font-family="sans-serif" font-size="14.00" fill="#000000"> &#160;Exports</text>
<g id="clust1" class="cluster">
<title>cluster_AppModule</title>
<polygon fill="none" stroke="#000000" stroke-dasharray="1,5" points="8,-70 8,-268 2506,-268 2506,-70 8,-70"/>
</g>
<g id="clust2" class="cluster">
<title>cluster_AppModule_declarations</title>
<polygon fill="none" stroke="#000000" points="624,-78 624,-130 2498,-130 2498,-78 624,-78"/>
</g>
<g id="clust17" class="cluster">
<title>cluster_AppModule_bootstrap</title>
<polygon fill="none" stroke="#000000" points="1219,-208 1219,-260 1343,-260 1343,-208 1219,-208"/>
</g>
<g id="clust18" class="cluster">
<title>cluster_AppModule_providers</title>
<polygon fill="none" stroke="#000000" points="16,-78 16,-130 616,-130 616,-78 16,-78"/>
</g>
<!-- AppComponent -->
<g id="node1" class="node">
<title>AppComponent</title>
<polygon fill="#ffffb3" stroke="#000000" points="2489.9399,-122 2384.0601,-122 2384.0601,-86 2489.9399,-86 2489.9399,-122"/>
<text text-anchor="middle" x="2437" y="-99.8" font-family="Times,serif" font-size="14.00" fill="#000000">AppComponent</text>
</g>
<!-- AppModule -->
<g id="node13" class="node">
<title>AppModule</title>
<polygon fill="#8dd3c7" stroke="#000000" points="1322.6571,-187 1319.6571,-191 1298.6571,-191 1295.6571,-187 1239.3429,-187 1239.3429,-151 1322.6571,-151 1322.6571,-187"/>
<text text-anchor="middle" x="1281" y="-164.8" font-family="Times,serif" font-size="14.00" fill="#000000">AppModule</text>
</g>
<!-- AppComponent&#45;&gt;AppModule -->
<g id="edge1" class="edge">
<title>AppComponent&#45;&gt;AppModule</title>
<path fill="none" stroke="#000000" d="M2437,-122.3228C2437,-145.6602 2437,-183 2437,-183 2437,-183 1332.8256,-183 1332.8256,-183"/>
<polygon fill="#000000" stroke="#000000" points="1332.8256,-179.5001 1322.8256,-183 1332.8256,-186.5001 1332.8256,-179.5001"/>
</g>
<!-- ArtefactDialogComponent -->
<g id="node2" class="node">
<title>ArtefactDialogComponent</title>
<polygon fill="#ffffb3" stroke="#000000" points="2366.7879,-122 2201.2121,-122 2201.2121,-86 2366.7879,-86 2366.7879,-122"/>
<text text-anchor="middle" x="2284" y="-99.8" font-family="Times,serif" font-size="14.00" fill="#000000">ArtefactDialogComponent</text>
</g>
<!-- ArtefactDialogComponent&#45;&gt;AppModule -->
<g id="edge2" class="edge">
<title>ArtefactDialogComponent&#45;&gt;AppModule</title>
<path fill="none" stroke="#000000" d="M2284,-122.2921C2284,-144.2057 2284,-178 2284,-178 2284,-178 1332.8207,-178 1332.8207,-178"/>
<polygon fill="#000000" stroke="#000000" points="1332.8207,-174.5001 1322.8207,-178 1332.8207,-181.5001 1332.8207,-174.5001"/>
</g>
<!-- DataComponent -->
<g id="node3" class="node">
<title>DataComponent</title>
<polygon fill="#ffffb3" stroke="#000000" points="2182.7591,-122 2075.2409,-122 2075.2409,-86 2182.7591,-86 2182.7591,-122"/>
<text text-anchor="middle" x="2129" y="-99.8" font-family="Times,serif" font-size="14.00" fill="#000000">DataComponent</text>
</g>
<!-- DataComponent&#45;&gt;AppModule -->
<g id="edge3" class="edge">
<title>DataComponent&#45;&gt;AppModule</title>
<path fill="none" stroke="#000000" d="M2129,-122.0267C2129,-142.7672 2129,-174 2129,-174 2129,-174 1332.7632,-174 1332.7632,-174"/>
<polygon fill="#000000" stroke="#000000" points="1332.7632,-170.5001 1322.7632,-174 1332.7632,-177.5001 1332.7632,-170.5001"/>
</g>
<!-- EditorComponent -->
<g id="node4" class="node">
<title>EditorComponent</title>
<polygon fill="#ffffb3" stroke="#000000" points="2057.3273,-122 1940.6727,-122 1940.6727,-86 2057.3273,-86 2057.3273,-122"/>
<text text-anchor="middle" x="1999" y="-99.8" font-family="Times,serif" font-size="14.00" fill="#000000">EditorComponent</text>
</g>
<!-- EditorComponent&#45;&gt;AppModule -->
<g id="edge4" class="edge">
<title>EditorComponent&#45;&gt;AppModule</title>
<path fill="none" stroke="#000000" d="M1999,-122.1061C1999,-141.3391 1999,-169 1999,-169 1999,-169 1332.7062,-169 1332.7062,-169"/>
<polygon fill="#000000" stroke="#000000" points="1332.7062,-165.5001 1322.7062,-169 1332.7061,-172.5001 1332.7062,-165.5001"/>
</g>
<!-- EditorPageComponent -->
<g id="node5" class="node">
<title>EditorPageComponent</title>
<polygon fill="#ffffb3" stroke="#000000" points="1922.5393,-122 1779.4607,-122 1779.4607,-86 1922.5393,-86 1922.5393,-122"/>
<text text-anchor="middle" x="1851" y="-99.8" font-family="Times,serif" font-size="14.00" fill="#000000">EditorPageComponent</text>
</g>
<!-- EditorPageComponent&#45;&gt;AppModule -->
<g id="edge5" class="edge">
<title>EditorPageComponent&#45;&gt;AppModule</title>
<path fill="none" stroke="#000000" d="M1851,-122.302C1851,-140.2699 1851,-165 1851,-165 1851,-165 1332.9135,-165 1332.9135,-165"/>
<polygon fill="#000000" stroke="#000000" points="1332.9135,-161.5001 1322.9135,-165 1332.9134,-168.5001 1332.9135,-161.5001"/>
</g>
<!-- ProcessComponent -->
<g id="node6" class="node">
<title>ProcessComponent</title>
<polygon fill="#ffffb3" stroke="#000000" points="1761.094,-122 1636.906,-122 1636.906,-86 1761.094,-86 1761.094,-122"/>
<text text-anchor="middle" x="1699" y="-99.8" font-family="Times,serif" font-size="14.00" fill="#000000">ProcessComponent</text>
</g>
<!-- ProcessComponent&#45;&gt;AppModule -->
<g id="edge6" class="edge">
<title>ProcessComponent&#45;&gt;AppModule</title>
<path fill="none" stroke="#000000" d="M1699,-122.027C1699,-138.3976 1699,-160 1699,-160 1699,-160 1332.9933,-160 1332.9933,-160"/>
<polygon fill="#000000" stroke="#000000" points="1332.9933,-156.5001 1322.9933,-160 1332.9932,-163.5001 1332.9933,-156.5001"/>
</g>
<!-- ProcessDialogComponent -->
<g id="node7" class="node">
<title>ProcessDialogComponent</title>
<polygon fill="#ffffb3" stroke="#000000" points="1619.1965,-122 1456.8035,-122 1456.8035,-86 1619.1965,-86 1619.1965,-122"/>
<text text-anchor="middle" x="1538" y="-99.8" font-family="Times,serif" font-size="14.00" fill="#000000">ProcessDialogComponent</text>
</g>
<!-- ProcessDialogComponent&#45;&gt;AppModule -->
<g id="edge7" class="edge">
<title>ProcessDialogComponent&#45;&gt;AppModule</title>
<path fill="none" stroke="#000000" d="M1538,-122.1871C1538,-137.1824 1538,-156 1538,-156 1538,-156 1332.8635,-156 1332.8635,-156"/>
<polygon fill="#000000" stroke="#000000" points="1332.8635,-152.5001 1322.8635,-156 1332.8634,-159.5001 1332.8635,-152.5001"/>
</g>
<!-- ProcessListComponent -->
<g id="node8" class="node">
<title>ProcessListComponent</title>
<polygon fill="#ffffb3" stroke="#000000" points="1438.8725,-122 1293.1275,-122 1293.1275,-86 1438.8725,-86 1438.8725,-122"/>
<text text-anchor="middle" x="1366" y="-99.8" font-family="Times,serif" font-size="14.00" fill="#000000">ProcessListComponent</text>
</g>
<!-- ProcessListComponent&#45;&gt;AppModule -->
<g id="edge8" class="edge">
<title>ProcessListComponent&#45;&gt;AppModule</title>
<path fill="none" stroke="#000000" d="M1307.946,-122.1061C1307.946,-122.1061 1307.946,-140.991 1307.946,-140.991"/>
<polygon fill="#000000" stroke="#000000" points="1304.4461,-140.9909 1307.946,-150.991 1311.4461,-140.991 1304.4461,-140.9909"/>
</g>
<!-- ResultDialogComponent -->
<g id="node9" class="node">
<title>ResultDialogComponent</title>
<polygon fill="#ffffb3" stroke="#000000" points="1274.7119,-122 1119.2881,-122 1119.2881,-86 1274.7119,-86 1274.7119,-122"/>
<text text-anchor="middle" x="1197" y="-99.8" font-family="Times,serif" font-size="14.00" fill="#000000">ResultDialogComponent</text>
</g>
<!-- ResultDialogComponent&#45;&gt;AppModule -->
<g id="edge9" class="edge">
<title>ResultDialogComponent&#45;&gt;AppModule</title>
<path fill="none" stroke="#000000" d="M1256.8889,-122.1061C1256.8889,-122.1061 1256.8889,-140.991 1256.8889,-140.991"/>
<polygon fill="#000000" stroke="#000000" points="1253.3889,-140.9909 1256.8889,-150.991 1260.3889,-140.991 1253.3889,-140.9909"/>
</g>
<!-- SettingsPageComponent -->
<g id="node10" class="node">
<title>SettingsPageComponent</title>
<polygon fill="#ffffb3" stroke="#000000" points="1101.6582,-122 948.3418,-122 948.3418,-86 1101.6582,-86 1101.6582,-122"/>
<text text-anchor="middle" x="1025" y="-99.8" font-family="Times,serif" font-size="14.00" fill="#000000">SettingsPageComponent</text>
</g>
<!-- SettingsPageComponent&#45;&gt;AppModule -->
<g id="edge10" class="edge">
<title>SettingsPageComponent&#45;&gt;AppModule</title>
<path fill="none" stroke="#000000" d="M1025,-122.1871C1025,-137.1824 1025,-156 1025,-156 1025,-156 1229.2994,-156 1229.2994,-156"/>
<polygon fill="#000000" stroke="#000000" points="1229.2995,-159.5001 1239.2994,-156 1229.2994,-152.5001 1229.2995,-159.5001"/>
</g>
<!-- TaskComponent -->
<g id="node11" class="node">
<title>TaskComponent</title>
<polygon fill="#ffffb3" stroke="#000000" points="930.0452,-122 821.9548,-122 821.9548,-86 930.0452,-86 930.0452,-122"/>
<text text-anchor="middle" x="876" y="-99.8" font-family="Times,serif" font-size="14.00" fill="#000000">TaskComponent</text>
</g>
<!-- TaskComponent&#45;&gt;AppModule -->
<g id="edge11" class="edge">
<title>TaskComponent&#45;&gt;AppModule</title>
<path fill="none" stroke="#000000" d="M876,-122.027C876,-138.3976 876,-160 876,-160 876,-160 1229.1833,-160 1229.1833,-160"/>
<polygon fill="#000000" stroke="#000000" points="1229.1833,-163.5001 1239.1833,-160 1229.1833,-156.5001 1229.1833,-163.5001"/>
</g>
<!-- WorkflowsPageComponent -->
<g id="node12" class="node">
<title>WorkflowsPageComponent</title>
<polygon fill="#ffffb3" stroke="#000000" points="803.5225,-122 632.4775,-122 632.4775,-86 803.5225,-86 803.5225,-122"/>
<text text-anchor="middle" x="718" y="-99.8" font-family="Times,serif" font-size="14.00" fill="#000000">WorkflowsPageComponent</text>
</g>
<!-- WorkflowsPageComponent&#45;&gt;AppModule -->
<g id="edge12" class="edge">
<title>WorkflowsPageComponent&#45;&gt;AppModule</title>
<path fill="none" stroke="#000000" d="M718,-122.302C718,-140.2699 718,-165 718,-165 718,-165 1229.1435,-165 1229.1435,-165"/>
<polygon fill="#000000" stroke="#000000" points="1229.1435,-168.5001 1239.1435,-165 1229.1434,-161.5001 1229.1435,-168.5001"/>
</g>
<!-- AppComponent  -->
<g id="node14" class="node">
<title>AppComponent </title>
<polygon fill="#80b1d3" stroke="#000000" points="1335.439,-252 1226.561,-252 1226.561,-216 1335.439,-216 1335.439,-252"/>
<text text-anchor="middle" x="1281" y="-229.8" font-family="Times,serif" font-size="14.00" fill="#000000">AppComponent </text>
</g>
<!-- AppModule&#45;&gt;AppComponent  -->
<g id="edge13" class="edge">
<title>AppModule&#45;&gt;AppComponent </title>
<path fill="none" stroke="#000000" stroke-dasharray="1,5" d="M1281,-187.1061C1281,-187.1061 1281,-205.991 1281,-205.991"/>
<polygon fill="#000000" stroke="#000000" points="1277.5001,-205.9909 1281,-215.991 1284.5001,-205.991 1277.5001,-205.9909"/>
</g>
<!-- ProcessService -->
<g id="node15" class="node">
<title>ProcessService</title>
<ellipse fill="#fdb462" stroke="#000000" cx="539" cy="-104" rx="69.4761" ry="18"/>
<text text-anchor="middle" x="539" y="-99.8" font-family="Times,serif" font-size="14.00" fill="#000000">ProcessService</text>
</g>
<!-- ProcessService&#45;&gt;AppModule -->
<g id="edge14" class="edge">
<title>ProcessService&#45;&gt;AppModule</title>
<path fill="none" stroke="#000000" d="M539,-122.1061C539,-141.3391 539,-169 539,-169 539,-169 1229.2493,-169 1229.2493,-169"/>
<polygon fill="#000000" stroke="#000000" points="1229.2493,-172.5001 1239.2493,-169 1229.2492,-165.5001 1229.2493,-172.5001"/>
</g>
<!-- UserService -->
<g id="node16" class="node">
<title>UserService</title>
<ellipse fill="#fdb462" stroke="#000000" cx="393" cy="-104" rx="58.4415" ry="18"/>
<text text-anchor="middle" x="393" y="-99.8" font-family="Times,serif" font-size="14.00" fill="#000000">UserService</text>
</g>
<!-- UserService&#45;&gt;AppModule -->
<g id="edge15" class="edge">
<title>UserService&#45;&gt;AppModule</title>
<path fill="none" stroke="#000000" d="M393,-122.0267C393,-142.7672 393,-174 393,-174 393,-174 1229.0646,-174 1229.0646,-174"/>
<polygon fill="#000000" stroke="#000000" points="1229.0646,-177.5001 1239.0646,-174 1229.0646,-170.5001 1229.0646,-177.5001"/>
</g>
<!-- WorkflowService -->
<g id="node17" class="node">
<title>WorkflowService</title>
<ellipse fill="#fdb462" stroke="#000000" cx="237" cy="-104" rx="79.8546" ry="18"/>
<text text-anchor="middle" x="237" y="-99.8" font-family="Times,serif" font-size="14.00" fill="#000000">WorkflowService</text>
</g>
<!-- WorkflowService&#45;&gt;AppModule -->
<g id="edge16" class="edge">
<title>WorkflowService&#45;&gt;AppModule</title>
<path fill="none" stroke="#000000" d="M237,-122.2921C237,-144.2057 237,-178 237,-178 237,-178 1229.1059,-178 1229.1059,-178"/>
<polygon fill="#000000" stroke="#000000" points="1229.1059,-181.5001 1239.1059,-178 1229.1059,-174.5001 1229.1059,-181.5001"/>
</g>
<!-- WpsService -->
<g id="node18" class="node">
<title>WpsService</title>
<ellipse fill="#fdb462" stroke="#000000" cx="82" cy="-104" rx="57.8829" ry="18"/>
<text text-anchor="middle" x="82" y="-99.8" font-family="Times,serif" font-size="14.00" fill="#000000">WpsService</text>
</g>
<!-- WpsService&#45;&gt;AppModule -->
<g id="edge17" class="edge">
<title>WpsService&#45;&gt;AppModule</title>
<path fill="none" stroke="#000000" d="M82,-122.3228C82,-145.6602 82,-183 82,-183 82,-183 1229.03,-183 1229.03,-183"/>
<polygon fill="#000000" stroke="#000000" points="1229.03,-186.5001 1239.03,-183 1229.03,-179.5001 1229.03,-186.5001"/>
</g>
</g>
</svg>
