<?xml version="1.0" encoding="UTF-8" standalone="no"?>
<!DOCTYPE svg PUBLIC "-//W3C//DTD SVG 1.1//EN"
 "http://www.w3.org/Graphics/SVG/1.1/DTD/svg11.dtd">
<!-- Generated by graphviz version 2.40.1 (20161225.0304)
 -->
<!-- Title: dependencies Pages: 1 -->
<svg width="2396pt" height="284pt"
 viewBox="0.00 0.00 2396.00 284.00" xmlns="http://www.w3.org/2000/svg" xmlns:xlink="http://www.w3.org/1999/xlink">
<g id="graph0" class="graph" transform="scale(1 1) rotate(0) translate(4 280)">
<title>dependencies</title>
<polygon fill="#ffffff" stroke="transparent" points="-4,4 -4,-280 2392,-280 2392,4 -4,4"/>
<text text-anchor="start" x="1173.0091" y="-42.4" font-family="sans-serif" font-weight="bold" font-size="14.00" fill="#000000">Legend</text>
<polygon fill="#ffffb3" stroke="transparent" points="960,-10 960,-30 980,-30 980,-10 960,-10"/>
<text text-anchor="start" x="983.629" y="-15.4" font-family="sans-serif" font-size="14.00" fill="#000000"> &#160;Declarations</text>
<polygon fill="#8dd3c7" stroke="transparent" points="1073,-10 1073,-30 1093,-30 1093,-10 1073,-10"/>
<text text-anchor="start" x="1096.7251" y="-15.4" font-family="sans-serif" font-size="14.00" fill="#000000"> &#160;Module</text>
<polygon fill="#80b1d3" stroke="transparent" points="1159,-10 1159,-30 1179,-30 1179,-10 1159,-10"/>
<text text-anchor="start" x="1182.7812" y="-15.4" font-family="sans-serif" font-size="14.00" fill="#000000"> &#160;Bootstrap</text>
<polygon fill="#fdb462" stroke="transparent" points="1256,-10 1256,-30 1276,-30 1276,-10 1256,-10"/>
<text text-anchor="start" x="1279.6732" y="-15.4" font-family="sans-serif" font-size="14.00" fill="#000000"> &#160;Providers</text>
<polygon fill="#fb8072" stroke="transparent" points="1352,-10 1352,-30 1372,-30 1372,-10 1352,-10"/>
<text text-anchor="start" x="1375.7258" y="-15.4" font-family="sans-serif" font-size="14.00" fill="#000000"> &#160;Exports</text>
<g id="clust1" class="cluster">
<title>cluster_AppModule</title>
<polygon fill="none" stroke="#000000" stroke-dasharray="1,5" points="8,-70 8,-268 2380,-268 2380,-70 8,-70"/>
</g>
<g id="clust2" class="cluster">
<title>cluster_AppModule_declarations</title>
<polygon fill="none" stroke="#000000" points="624,-78 624,-130 2372,-130 2372,-78 624,-78"/>
</g>
<g id="clust16" class="cluster">
<title>cluster_AppModule_bootstrap</title>
<polygon fill="none" stroke="#000000" points="1135,-208 1135,-260 1259,-260 1259,-208 1135,-208"/>
</g>
<g id="clust17" class="cluster">
<title>cluster_AppModule_providers</title>
<polygon fill="none" stroke="#000000" points="16,-78 16,-130 616,-130 616,-78 16,-78"/>
</g>
<!-- AppComponent -->
<g id="node1" class="node">
<title>AppComponent</title>
<polygon fill="#ffffb3" stroke="#000000" points="2363.9399,-122 2258.0601,-122 2258.0601,-86 2363.9399,-86 2363.9399,-122"/>
<text text-anchor="middle" x="2311" y="-99.8" font-family="Times,serif" font-size="14.00" fill="#000000">AppComponent</text>
</g>
<!-- AppModule -->
<g id="node12" class="node">
<title>AppModule</title>
<polygon fill="#8dd3c7" stroke="#000000" points="1238.6571,-187 1235.6571,-191 1214.6571,-191 1211.6571,-187 1155.3429,-187 1155.3429,-151 1238.6571,-151 1238.6571,-187"/>
<text text-anchor="middle" x="1197" y="-164.8" font-family="Times,serif" font-size="14.00" fill="#000000">AppModule</text>
</g>
<!-- AppComponent&#45;&gt;AppModule -->
<g id="edge1" class="edge">
<title>AppComponent&#45;&gt;AppModule</title>
<path fill="none" stroke="#000000" d="M2311,-122.3228C2311,-145.6602 2311,-183 2311,-183 2311,-183 1248.9728,-183 1248.9728,-183"/>
<polygon fill="#000000" stroke="#000000" points="1248.9728,-179.5001 1238.9728,-183 1248.9727,-186.5001 1248.9728,-179.5001"/>
</g>
<!-- ArtefactDialogComponent -->
<g id="node2" class="node">
<title>ArtefactDialogComponent</title>
<polygon fill="#ffffb3" stroke="#000000" points="2240.7879,-122 2075.2121,-122 2075.2121,-86 2240.7879,-86 2240.7879,-122"/>
<text text-anchor="middle" x="2158" y="-99.8" font-family="Times,serif" font-size="14.00" fill="#000000">ArtefactDialogComponent</text>
</g>
<!-- ArtefactDialogComponent&#45;&gt;AppModule -->
<g id="edge2" class="edge">
<title>ArtefactDialogComponent&#45;&gt;AppModule</title>
<path fill="none" stroke="#000000" d="M2158,-122.2921C2158,-144.2057 2158,-178 2158,-178 2158,-178 1248.9109,-178 1248.9109,-178"/>
<polygon fill="#000000" stroke="#000000" points="1248.9109,-174.5001 1238.9109,-178 1248.9109,-181.5001 1248.9109,-174.5001"/>
</g>
<!-- EditorComponent -->
<g id="node3" class="node">
<title>EditorComponent</title>
<polygon fill="#ffffb3" stroke="#000000" points="2057.3273,-122 1940.6727,-122 1940.6727,-86 2057.3273,-86 2057.3273,-122"/>
<text text-anchor="middle" x="1999" y="-99.8" font-family="Times,serif" font-size="14.00" fill="#000000">EditorComponent</text>
</g>
<!-- EditorComponent&#45;&gt;AppModule -->
<g id="edge3" class="edge">
<title>EditorComponent&#45;&gt;AppModule</title>
<path fill="none" stroke="#000000" d="M1999,-122.0267C1999,-142.7672 1999,-174 1999,-174 1999,-174 1248.7096,-174 1248.7096,-174"/>
<polygon fill="#000000" stroke="#000000" points="1248.7096,-170.5001 1238.7096,-174 1248.7096,-177.5001 1248.7096,-170.5001"/>
</g>
<!-- EditorPageComponent -->
<g id="node4" class="node">
<title>EditorPageComponent</title>
<polygon fill="#ffffb3" stroke="#000000" points="1922.5393,-122 1779.4607,-122 1779.4607,-86 1922.5393,-86 1922.5393,-122"/>
<text text-anchor="middle" x="1851" y="-99.8" font-family="Times,serif" font-size="14.00" fill="#000000">EditorPageComponent</text>
</g>
<!-- EditorPageComponent&#45;&gt;AppModule -->
<g id="edge4" class="edge">
<title>EditorPageComponent&#45;&gt;AppModule</title>
<path fill="none" stroke="#000000" d="M1851,-122.1061C1851,-141.3391 1851,-169 1851,-169 1851,-169 1248.9055,-169 1248.9055,-169"/>
<polygon fill="#000000" stroke="#000000" points="1248.9056,-165.5001 1238.9055,-169 1248.9055,-172.5001 1248.9056,-165.5001"/>
</g>
<!-- ProcessComponent -->
<g id="node5" class="node">
<title>ProcessComponent</title>
<polygon fill="#ffffb3" stroke="#000000" points="1761.094,-122 1636.906,-122 1636.906,-86 1761.094,-86 1761.094,-122"/>
<text text-anchor="middle" x="1699" y="-99.8" font-family="Times,serif" font-size="14.00" fill="#000000">ProcessComponent</text>
</g>
<!-- ProcessComponent&#45;&gt;AppModule -->
<g id="edge5" class="edge">
<title>ProcessComponent&#45;&gt;AppModule</title>
<path fill="none" stroke="#000000" d="M1699,-122.302C1699,-140.2699 1699,-165 1699,-165 1699,-165 1248.9368,-165 1248.9368,-165"/>
<polygon fill="#000000" stroke="#000000" points="1248.9368,-161.5001 1238.9368,-165 1248.9368,-168.5001 1248.9368,-161.5001"/>
</g>
<!-- ProcessDialogComponent -->
<g id="node6" class="node">
<title>ProcessDialogComponent</title>
<polygon fill="#ffffb3" stroke="#000000" points="1619.1965,-122 1456.8035,-122 1456.8035,-86 1619.1965,-86 1619.1965,-122"/>
<text text-anchor="middle" x="1538" y="-99.8" font-family="Times,serif" font-size="14.00" fill="#000000">ProcessDialogComponent</text>
</g>
<!-- ProcessDialogComponent&#45;&gt;AppModule -->
<g id="edge6" class="edge">
<title>ProcessDialogComponent&#45;&gt;AppModule</title>
<path fill="none" stroke="#000000" d="M1538,-122.027C1538,-138.3976 1538,-160 1538,-160 1538,-160 1248.8133,-160 1248.8133,-160"/>
<polygon fill="#000000" stroke="#000000" points="1248.8133,-156.5001 1238.8133,-160 1248.8133,-163.5001 1248.8133,-156.5001"/>
</g>
<!-- ProcessListComponent -->
<g id="node7" class="node">
<title>ProcessListComponent</title>
<polygon fill="#ffffb3" stroke="#000000" points="1438.8725,-122 1293.1275,-122 1293.1275,-86 1438.8725,-86 1438.8725,-122"/>
<text text-anchor="middle" x="1366" y="-99.8" font-family="Times,serif" font-size="14.00" fill="#000000">ProcessListComponent</text>
</g>
<!-- ProcessListComponent&#45;&gt;AppModule -->
<g id="edge7" class="edge">
<title>ProcessListComponent&#45;&gt;AppModule</title>
<path fill="none" stroke="#000000" d="M1366,-122.1871C1366,-137.1824 1366,-156 1366,-156 1366,-156 1248.7753,-156 1248.7753,-156"/>
<polygon fill="#000000" stroke="#000000" points="1248.7753,-152.5001 1238.7753,-156 1248.7753,-159.5001 1248.7753,-152.5001"/>
</g>
<!-- ResultDialogComponent -->
<g id="node8" class="node">
<title>ResultDialogComponent</title>
<polygon fill="#ffffb3" stroke="#000000" points="1274.7119,-122 1119.2881,-122 1119.2881,-86 1274.7119,-86 1274.7119,-122"/>
<text text-anchor="middle" x="1197" y="-99.8" font-family="Times,serif" font-size="14.00" fill="#000000">ResultDialogComponent</text>
</g>
<!-- ResultDialogComponent&#45;&gt;AppModule -->
<g id="edge8" class="edge">
<title>ResultDialogComponent&#45;&gt;AppModule</title>
<path fill="none" stroke="#000000" d="M1197,-122.1061C1197,-122.1061 1197,-140.991 1197,-140.991"/>
<polygon fill="#000000" stroke="#000000" points="1193.5001,-140.9909 1197,-150.991 1200.5001,-140.991 1193.5001,-140.9909"/>
</g>
<!-- SettingsPageComponent -->
<g id="node9" class="node">
<title>SettingsPageComponent</title>
<polygon fill="#ffffb3" stroke="#000000" points="1101.6582,-122 948.3418,-122 948.3418,-86 1101.6582,-86 1101.6582,-122"/>
<text text-anchor="middle" x="1025" y="-99.8" font-family="Times,serif" font-size="14.00" fill="#000000">SettingsPageComponent</text>
</g>
<!-- SettingsPageComponent&#45;&gt;AppModule -->
<g id="edge9" class="edge">
<title>SettingsPageComponent&#45;&gt;AppModule</title>
<path fill="none" stroke="#000000" d="M1025,-122.1871C1025,-137.1824 1025,-156 1025,-156 1025,-156 1144.9241,-156 1144.9241,-156"/>
<polygon fill="#000000" stroke="#000000" points="1144.9241,-159.5001 1154.9241,-156 1144.924,-152.5001 1144.9241,-159.5001"/>
</g>
<!-- TaskComponent -->
<g id="node10" class="node">
<title>TaskComponent</title>
<polygon fill="#ffffb3" stroke="#000000" points="930.0452,-122 821.9548,-122 821.9548,-86 930.0452,-86 930.0452,-122"/>
<text text-anchor="middle" x="876" y="-99.8" font-family="Times,serif" font-size="14.00" fill="#000000">TaskComponent</text>
</g>
<!-- TaskComponent&#45;&gt;AppModule -->
<g id="edge10" class="edge">
<title>TaskComponent&#45;&gt;AppModule</title>
<path fill="none" stroke="#000000" d="M876,-122.027C876,-138.3976 876,-160 876,-160 876,-160 1145.0349,-160 1145.0349,-160"/>
<polygon fill="#000000" stroke="#000000" points="1145.0349,-163.5001 1155.0349,-160 1145.0348,-156.5001 1145.0349,-163.5001"/>
</g>
<!-- WorkflowsPageComponent -->
<g id="node11" class="node">
<title>WorkflowsPageComponent</title>
<polygon fill="#ffffb3" stroke="#000000" points="803.5225,-122 632.4775,-122 632.4775,-86 803.5225,-86 803.5225,-122"/>
<text text-anchor="middle" x="718" y="-99.8" font-family="Times,serif" font-size="14.00" fill="#000000">WorkflowsPageComponent</text>
</g>
<!-- WorkflowsPageComponent&#45;&gt;AppModule -->
<g id="edge11" class="edge">
<title>WorkflowsPageComponent&#45;&gt;AppModule</title>
<path fill="none" stroke="#000000" d="M718,-122.302C718,-140.2699 718,-165 718,-165 718,-165 1145.3298,-165 1145.3298,-165"/>
<polygon fill="#000000" stroke="#000000" points="1145.3299,-168.5001 1155.3298,-165 1145.3298,-161.5001 1145.3299,-168.5001"/>
</g>
<!-- AppComponent  -->
<g id="node13" class="node">
<title>AppComponent </title>
<polygon fill="#80b1d3" stroke="#000000" points="1251.439,-252 1142.561,-252 1142.561,-216 1251.439,-216 1251.439,-252"/>
<text text-anchor="middle" x="1197" y="-229.8" font-family="Times,serif" font-size="14.00" fill="#000000">AppComponent </text>
</g>
<!-- AppModule&#45;&gt;AppComponent  -->
<g id="edge12" class="edge">
<title>AppModule&#45;&gt;AppComponent </title>
<path fill="none" stroke="#000000" stroke-dasharray="1,5" d="M1197,-187.1061C1197,-187.1061 1197,-205.991 1197,-205.991"/>
<polygon fill="#000000" stroke="#000000" points="1193.5001,-205.9909 1197,-215.991 1200.5001,-205.991 1193.5001,-205.9909"/>
</g>
<!-- ProcessService -->
<g id="node14" class="node">
<title>ProcessService</title>
<ellipse fill="#fdb462" stroke="#000000" cx="539" cy="-104" rx="69.4761" ry="18"/>
<text text-anchor="middle" x="539" y="-99.8" font-family="Times,serif" font-size="14.00" fill="#000000">ProcessService</text>
</g>
<!-- ProcessService&#45;&gt;AppModule -->
<g id="edge13" class="edge">
<title>ProcessService&#45;&gt;AppModule</title>
<path fill="none" stroke="#000000" d="M539,-122.1061C539,-141.3391 539,-169 539,-169 539,-169 1145.34,-169 1145.34,-169"/>
<polygon fill="#000000" stroke="#000000" points="1145.34,-172.5001 1155.34,-169 1145.3399,-165.5001 1145.34,-172.5001"/>
</g>
<!-- UserService -->
<g id="node15" class="node">
<title>UserService</title>
<ellipse fill="#fdb462" stroke="#000000" cx="393" cy="-104" rx="58.4415" ry="18"/>
<text text-anchor="middle" x="393" y="-99.8" font-family="Times,serif" font-size="14.00" fill="#000000">UserService</text>
</g>
<!-- UserService&#45;&gt;AppModule -->
<g id="edge14" class="edge">
<title>UserService&#45;&gt;AppModule</title>
<path fill="none" stroke="#000000" d="M393,-122.0267C393,-142.7672 393,-174 393,-174 393,-174 1145.1864,-174 1145.1864,-174"/>
<polygon fill="#000000" stroke="#000000" points="1145.1864,-177.5001 1155.1864,-174 1145.1864,-170.5001 1145.1864,-177.5001"/>
</g>
<!-- WorkflowService -->
<g id="node16" class="node">
<title>WorkflowService</title>
<ellipse fill="#fdb462" stroke="#000000" cx="237" cy="-104" rx="79.8546" ry="18"/>
<text text-anchor="middle" x="237" y="-99.8" font-family="Times,serif" font-size="14.00" fill="#000000">WorkflowService</text>
</g>
<!-- WorkflowService&#45;&gt;AppModule -->
<g id="edge15" class="edge">
<title>WorkflowService&#45;&gt;AppModule</title>
<path fill="none" stroke="#000000" d="M237,-122.2921C237,-144.2057 237,-178 237,-178 237,-178 1145.1327,-178 1145.1327,-178"/>
<polygon fill="#000000" stroke="#000000" points="1145.1327,-181.5001 1155.1327,-178 1145.1327,-174.5001 1145.1327,-181.5001"/>
</g>
<!-- WpsService -->
<g id="node17" class="node">
<title>WpsService</title>
<ellipse fill="#fdb462" stroke="#000000" cx="82" cy="-104" rx="57.8829" ry="18"/>
<text text-anchor="middle" x="82" y="-99.8" font-family="Times,serif" font-size="14.00" fill="#000000">WpsService</text>
</g>
<!-- WpsService&#45;&gt;AppModule -->
<g id="edge16" class="edge">
<title>WpsService&#45;&gt;AppModule</title>
<path fill="none" stroke="#000000" d="M82,-122.3228C82,-145.6602 82,-183 82,-183 82,-183 1145.3257,-183 1145.3257,-183"/>
<polygon fill="#000000" stroke="#000000" points="1145.3257,-186.5001 1155.3257,-183 1145.3256,-179.5001 1145.3257,-186.5001"/>
</g>
</g>
</svg>
